<svg xmlns="http://www.w3.org/2000/svg" id="Calque_1" data-name="Calque 1" version="1.1" viewBox="0 0 1024 1024"><defs><style>.cls-2,.cls-3,.cls-4{stroke-width:0}.cls-2{fill:#000}.cls-3{fill:#61b2e4}.cls-4{fill:#92d3f5}.cls-7{fill:none;stroke:#000;stroke-linecap:round;stroke-linejoin:round;stroke-width:30px}</style></defs><g id="color"><path d="m806.9 378.3-168.4-67.9c-2.8-60.8-26.9-159.9-150-164.1-169.8 0-206.6 155.6-206.6 155.6l-14.1 28.3-8.5 17-75 31.1" class="cls-4"/><path d="M256.3 378.3 224 458.9c-4.4 8.2-5.4 17.9-2.8 26.9l41 151.4c.8 2.7 3.7 4.3 6.4 3.5 1.7-.5 3-1.8 3.5-3.5l2.8-108.9 8.5-8.5 14.1-18.4 113.2-124.5" class="cls-3"/><path d="M226.8 877v-56.6c0-70.7 65.7-132.1 136.3-132.1C448 759 547 757.9 631.9 687.1c70.7 0 132.6 62.6 132.6 133.2v56.6" class="cls-4"/><path d="M632.3 877v-56.8c-2-37.2-23.3-75.9-52.4-99.2 14.1-7.8 37.9-22.1 51.9-33.9 70.7 0 132.6 62.6 132.6 133.2v56.6M741.3 588.2c-36-15.2-52.8-56.7-37.6-92.7 15.2-36 56.7-52.8 92.7-37.6 36 15.2 52.8 56.7 37.6 92.7-6.3 15-17.7 27.4-32 35" class="cls-3"/><path d="M768.9 474.1c-12.4 1.9-24 7.6-33.1 16.3 21.8-4.9 44.4-4.9 66.2 0-9.1-8.7-20.7-14.3-33.1-16.3Z" class="cls-4"/><path d="M797.2 877.7V588.2h-56.6v289.5" style="fill:#a57939;stroke-width:0"/></g><path id="hair" d="M492.2 784.3C682.1 647.2 677.5 471 657.7 394.1h-24.1S656 505.8 495.5 505.8 361.2 394.1 361.2 394.1h-24.7c-22.7 67.1-33.9 221.8 155.6 390.2Z" style="fill:#d0cfce;stroke-width:0"/><path id="skin" d="M633.7 379.9s22.4 125.9-138.1 125.9-134.3-125.9-134.3-125.9" style="stroke-width:0;fill:#fcea2b"/><g id="line"><path d="m256.3 379.7-30.9 79.2c-4.4 8.2-5.4 17.9-2.8 26.9l39.6 151.4c.8 2.7 3.7 4.3 6.4 3.5 1.7-.5 3-1.8 3.5-3.5l2.8-108.9c.1-6.7 1.1-13.3 2.8-19.8" class="cls-7"/><path d="M366.9 262.3c-6 15.5-10.3 31.6-12.7 48.1h0l-169.8 69.3h622.5l-168.4-69.3c-2.8-60.8-31.1-159.9-154.2-164.1-183.9 0-215 191-215 191M741.3 589c-36-15.2-52.8-56.7-37.6-92.7 15.2-36 56.7-52.8 92.7-37.6 36 15.2 52.8 56.7 37.6 92.7-6.3 15-17.7 27.4-32 35M797.2 864.3V589.2h-56.6v275.1M643.3 695.3c38.3 5.8 74.6 27.2 97.3 57.4M226.8 863.6v-42.4c0-64.8 59.6-117.9 124-126.2" class="cls-7"/><path d="M580.5 437.7c0 15.6-12.7 28.3-28.3 28.3s-28.3-12.7-28.3-28.3 12.7-28.3 28.3-28.3 28.3 12.7 28.3 28.3M467.3 437.7c0 15.6-12.7 28.3-28.3 28.3s-28.3-12.7-28.3-28.3 12.7-28.3 28.3-28.3 28.3 12.7 28.3 28.3" class="cls-2"/><path d="M453.2 553.7c26.9 14.1 58 14.1 84.9 0" class="cls-7"/><path d="M492.2 784.3C682.1 647.2 677.5 471 657.7 394.1h-24.1S656 505.8 495.5 505.8 361.2 394.1 361.2 394.1h-24.7c-22.7 67.1-33.9 221.8 155.6 390.2Z" class="cls-7"/></g></svg>